<svg xmlns="http://www.w3.org/2000/svg" version="1.1" xmlns:xlink="http://www.w3.org/1999/xlink" xmlns:svgjs="http://svgjs.dev/svgjs" viewBox="0 0 1920 1080"><rect width="1920" height="1080" fill="#000000"></rect><g transform="matrix(1.15,0,0,1.15,-136.35633773803693,-81)"><path d="M0,-1080C-9.465144777844253,-977.6115524559261,-60.929871580435396,-664.8084373871939,-56.790868667065524,-465.6693147355569C-52.65186575369565,-266.5301920839199,27.084564195212938,-51.09106491950914,24.834017480219245,114.83473590982192C22.583470765225552,280.76053673915294,-51.31426681463043,365.6013046862083,-70.29414895702769,529.8854902404294C-89.27403109942495,694.1696757946504,-119.2681963035868,906.2673428093274,-89.0452753741643,1100.539849235148C-58.822354444741805,1294.8123556609687,96.20249739047996,1518.9438370012113,111.04337661950734,1695.5205287953534C125.88425584853472,1872.0972205894955,18.507229436584556,2082.5867547992257,0,2160L 1920 2160 L 1920 -1080 Z" fill="url(&quot;#SvgjsLinearGradient1000&quot;)"></path><path d="M320,-1080C322.6912616137505,-983.3419460815859,331.9821949703666,-637.2366393066561,336.1475696825029,-500.0516764895152C340.31294439463915,-362.8667136723743,350.25931076107753,-402.0457546571739,344.99224827281773,-256.8902230971543C339.72518578455794,-111.7346915371347,309.8706101653663,210.35509871689925,304.54519475294404,370.88151287060253C299.21977934052177,531.4079270243058,311.7907104506478,550.955424187164,313.03975579828403,706.2682618250653C314.2888011459203,861.5810994629667,310.33526594745894,1125.3061852959952,312.03946683876165,1302.7585386980104C313.7436677300644,1480.2108921000256,321.9382056192272,1628.108805353491,323.26496114610023,1770.9823822371561C324.5917166729733,1913.8559591208211,320.5441601910167,2095.1637303728594,320,2160L 1920 2160 L 1920 -1080 Z" fill="url(&quot;#SvgjsLinearGradient1001&quot;)"></path><path d="M640,-1080C645.9169854918022,-994.6993881588337,694.1032295386948,-706.9320183698129,675.501912950813,-568.1963289530025C656.9005963629312,-429.46063953619216,539.4879042124561,-348.58458285214425,528.3921004727091,-247.5858634991376C517.2962967329621,-146.58714414613092,606.7756213957556,-93.74733804857894,608.9270905123312,37.7959871650375C611.0785596289069,169.33931237865394,555.8883038736398,381.57746743405073,541.3009151721631,541.6740877825611C526.7135264706864,701.7707081310714,506.4040074603003,855.193707848769,521.4027583034708,998.3757092560994C536.4015091466413,1141.5577106634298,628.2951175848696,1259.2383546454103,631.293420231186,1400.7660962265436C634.2917228775025,1542.293837807677,537.9414775532337,1721.003174780657,539.3925741813694,1847.5421587428998C540.843670809505,1974.0811427051426,623.2320956968949,2107.9236931238165,640,2160L 1920 2160 L 1920 -1080 Z" fill="url(&quot;#SvgjsLinearGradient1002&quot;)"></path><path d="M960,-1080C967.9704399280024,-983.0427980015617,1014.1080483003975,-666.6384143320449,1007.8226395680144,-498.25678800936987C1001.5372308356314,-329.8751616866948,937.1399800582899,-235.99318407114055,922.2875476057017,-69.71024206394975C907.4351151531134,96.57269994324105,921.5487943380289,295.2886472069363,918.7080448524853,499.4408640337749C915.8672953669417,703.5930808606136,882.7051114386121,976.3048551570731,905.2430506924402,1155.203058897082C927.7809899462683,1334.1012626370907,1044.8095221575275,1405.3639296233416,1053.935680375454,1572.830086473828C1063.0618385933806,1740.2962433243144,975.6559467292424,2062.138347745638,960,2160L 1920 2160 L 1920 -1080 Z" fill="url(&quot;#SvgjsLinearGradient1003&quot;)"></path><path d="M1280,-1080C1300.9354546504294,-1002.3223406421413,1409.9944230494104,-793.0849897002862,1405.6127279025766,-613.9340438528475C1401.2310327557427,-434.78309800540876,1285.591587435057,-182.59074489116412,1253.709829118997,-5.094324915367565C1221.8280708029372,172.402095060429,1226.0272136944227,288.4949459527902,1214.3221780062177,451.0444760019318C1202.6171423180126,613.5940060510734,1163.019809690609,761.6529719277735,1183.4796149897668,970.2028553794819C1203.9394202889246,1178.7527388311903,1320.9942789661254,1504.0442526087627,1337.0810098011643,1702.3437767121825C1353.1677406362032,1900.6433008156023,1289.5135016335273,2083.7239627853637,1280,2160L 1920 2160 L 1920 -1080 Z" fill="url(&quot;#SvgjsLinearGradient1004&quot;)"></path><path d="M1600,-1080C1601.4712998967668,-1001.6188125223338,1608.5705486302522,-777.5002009684481,1608.8277993806014,-609.7128751340024C1609.0850501309505,-441.9255492995567,1620.8404204901453,-210.53066819888573,1601.543504502095,-73.27604499332602C1582.2465885140446,63.978578212233685,1485.4070921727616,82.10890782306504,1493.0463034522986,213.81486409935582C1500.6855147318356,345.5208203756466,1634.3563506548785,560.9354270043721,1647.3787721793167,716.9596926644186C1660.4011937037549,872.9839583244652,1562.031413064033,1004.7385454010426,1571.1808325989273,1149.9604580596351C1580.3302521338217,1295.1823707182275,1697.4720948218376,1419.951244959246,1702.275289388683,1588.2911686159734C1707.0784839555283,1756.631092272701,1617.0458815647805,2064.7151947693287,1600,2160L 1920 2160 L 1920 -1080 Z" fill="url(&quot;#SvgjsLinearGradient1005&quot;)"></path></g><defs><linearGradient x1="0.1" y1="0" x2="0" y2="1" id="SvgjsLinearGradient1000"><stop stop-color="#000000" offset="0"></stop><stop stop-color="#000000" offset="0"></stop></linearGradient><linearGradient x1="0.1" y1="0" x2="0" y2="1" id="SvgjsLinearGradient1001"><stop stop-color="#2a2a2a" offset="0"></stop><stop stop-color="#2a2a2a" offset="0.16666666666666666"></stop></linearGradient><linearGradient x1="0.1" y1="0" x2="0" y2="1" id="SvgjsLinearGradient1002"><stop stop-color="#555555" offset="0"></stop><stop stop-color="#555555" offset="0.3333333333333333"></stop></linearGradient><linearGradient x1="0.1" y1="0" x2="0" y2="1" id="SvgjsLinearGradient1003"><stop stop-color="#7f7f7f" offset="0"></stop><stop stop-color="#7f7f7f" offset="0.5"></stop></linearGradient><linearGradient x1="0.1" y1="0" x2="0" y2="1" id="SvgjsLinearGradient1004"><stop stop-color="#aaaaaa" offset="0"></stop><stop stop-color="#aaaaaa" offset="0.6666666666666666"></stop></linearGradient><linearGradient x1="0.1" y1="0" x2="0" y2="1" id="SvgjsLinearGradient1005"><stop stop-color="#d4d4d4" offset="0"></stop><stop stop-color="#d4d4d4" offset="0.8333333333333334"></stop></linearGradient></defs></svg>