<svg xmlns="http://www.w3.org/2000/svg" version="1.1" xmlns:xlink="http://www.w3.org/1999/xlink" xmlns:svgjs="http://svgjs.dev/svgjs" viewBox="0 0 1920 1080"><rect width="1920" height="1080" fill="#aecfea"></rect><g transform="matrix(-2.112515728529184e-16,-1.15,1.15,-2.112515728529184e-16,313.47785949707054,1614.649538421631)"><path d="M0,-1080C3.2625990576606845,-984.1525361875244,28.01974185197524,-674.6237787848082,19.575594345964106,-504.915217125147C11.131446839952973,-335.2066554654858,-56.69905910889101,-236.60248059549997,-50.66488503606679,-61.74863004203259C-44.63071096324258,113.10522051143481,43.01831066701069,363.31645421116434,55.780638782909406,544.2078861956574C68.54296689880813,725.0993181801504,28.810530035098612,852.933993506449,25.909083659325532,1023.5999618649253C23.00763728355245,1194.2659302234015,42.69014113815851,1378.803689990669,38.37196052827092,1568.2036963465148C34.05377991838333,1757.6037027023606,6.39532675471182,2061.367282724419,0,2160L 1920 2160 L 1920 -1080 Z" fill="url(&quot;#SvgjsLinearGradient1319&quot;)"></path><path d="M213.33333333333331,-1080C214.58066029948503,-1000.3448275640486,213.9704884952127,-753.849206551195,220.81729513024356,-602.0689653842919C227.66410176527444,-450.2887242173888,247.59049432678484,-317.2850789467897,254.41417314351855,-169.3185529985814C261.23785196025227,-21.352027050373067,267.4677728841083,128.52678102068472,261.7593680306459,285.730190304958C256.05096317718346,442.9335995892313,226.79917656509033,607.6341388187873,220.16374402274408,773.9019027070583C213.52831148039783,940.1696665953293,233.41370146460892,1138.2228928800605,221.9467727765683,1283.3367736345838C210.4798440885277,1428.450654389107,152.79774513503963,1498.4746495066286,151.36217189450048,1644.585187234198C149.92659865396132,1790.6957249617674,203.00480642686117,2074.0975312057,213.33333333333331,2160L 1920 2160 L 1920 -1080 Z" fill="url(&quot;#SvgjsLinearGradient1320&quot;)"></path><path d="M426.66666666666663,-1080C424.37143101277184,-999.8232343847035,408.4775793835281,-752.7675899946776,412.8952527432978,-598.9394063082209C417.3129261030675,-445.1112226217642,441.4644768919855,-317.0262868789014,453.1727068252847,-157.03089788125976C464.8809367585839,2.964491116381822,488.37361493435395,199.7262524593642,483.1446323430931,361.0329276776285C477.9156497518323,522.3396028958928,436.0070279738394,670.2065225694284,421.7988112777196,810.809153428326C407.5905945815998,951.4117842872236,405.75758643194496,1056.637641138529,397.89533216637426,1204.648712831014C390.03307790080356,1352.6597845234992,369.8300632675801,1539.6503690550724,374.6252856842955,1698.8755835832367C379.42050810101085,1858.100798111401,417.99310316960475,2083.145930597206,426.66666666666663,2160L 1920 2160 L 1920 -1080 Z" fill="url(&quot;#SvgjsLinearGradient1321&quot;)"></path><path d="M640,-1080C633.3333850892083,-992.408817024517,603.6640242725125,-701.0639884016448,600.0003105352495,-554.4529021471023C596.3365967979864,-407.84181589255996,605.0258379704836,-350.28074487091305,618.0177175764214,-200.3334824727457C631.0095971823592,-50.38622007457835,683.1436250028852,185.28039169372016,677.9515881708763,345.23067224190174C672.7595513388675,505.1809527900833,601.4238394127974,606.9031461719309,586.8654965843684,759.3682008163438C572.3071537559395,911.8332554607567,589.2687587035443,1093.2656500383005,590.6015312003027,1260.0210001083792C591.9343036970611,1426.776350178458,586.6290534316356,1609.9038012548795,594.8621315649185,1759.9003012368162C603.0952096982014,1909.896801218753,632.4770219274865,2093.3167168728028,640,2160L 1920 2160 L 1920 -1080 Z" fill="url(&quot;#SvgjsLinearGradient1322&quot;)"></path><path d="M853.3333333333333,-1080C853.2951917350491,-1012.2238251528645,855.0498607953892,-821.5619866523615,853.1044837436283,-673.3429509171868C851.1591066918674,-525.1239151820122,850.8470295502185,-350.728247164463,841.6610710227678,-190.68578558895217C832.4751124953171,-30.643324013441315,792.3263097292893,121.85142525102106,797.9887325789242,286.9118185358783C803.6511554285592,451.97221182073554,860.465308980101,651.3985516639999,875.6356081205777,799.6765741201913C890.8059072610544,947.9545965763826,897.1955558502068,1017.502519416849,889.0105274217846,1176.5799532730264C880.8254989933623,1335.6573871292037,832.4716365647862,1590.237836136093,826.5254375500443,1754.141177257255C820.5792385353025,1918.0445183784173,848.8653507027851,2092.356862876209,853.3333333333333,2160L 1920 2160 L 1920 -1080 Z" fill="url(&quot;#SvgjsLinearGradient1323&quot;)"></path><path d="M1066.6666666666667,-1080C1056.8857402828767,-1007.0728498468283,1011.7354716969576,-783.410770759938,1007.9811083639265,-642.4370990809693C1004.2267450308955,-501.46342740200066,1040.2445962002605,-354.86477237115116,1044.1404866684807,-234.157969926188C1048.0363771367008,-113.45116748122486,1033.9348117182437,-51.2106957469191,1031.3564511732473,81.80371558880952C1028.7780906282508,214.81812692453815,1033.3942293402754,422.7254279618013,1028.670323398502,563.9284980881838C1023.9464174567286,705.1315682145663,991.6607190001447,798.3670125496611,1003.0130155226071,929.0221363471045C1014.3653120450696,1059.6772601445477,1096.6649467196407,1213.8331177993182,1096.7841025332768,1347.8592408728439C1096.903258346913,1481.8853639463696,1008.747523048859,1597.8220816003995,1003.727950404424,1733.1788747882588C998.7083777599889,1868.535667976118,1056.1768806229595,2088.863145798043,1066.6666666666667,2160L 1920 2160 L 1920 -1080 Z" fill="url(&quot;#SvgjsLinearGradient1324&quot;)"></path><path d="M1280,-1080C1288.7336759407804,-987.1280309603588,1324.085892474331,-707.8585108003225,1332.402055644682,-522.7681857621532C1340.7182188150327,-337.6778607239838,1335.7626902733089,-144.45257500149359,1329.8969790221045,30.541950229016294C1324.0312677709,205.53647545952617,1303.4445922413151,343.20348477244795,1297.2077881374553,527.198965620906C1290.9709840335954,711.1944464693642,1294.9957193182972,943.7513390302702,1292.476154398945,1134.514835319765C1289.9565894795928,1325.27833160926,1284.1697576878323,1500.865749244503,1282.0903986213416,1671.7799433578755C1280.0110395548509,1842.694137471248,1280.3483997702235,2078.629990559646,1280,2160L 1920 2160 L 1920 -1080 Z" fill="url(&quot;#SvgjsLinearGradient1325&quot;)"></path><path d="M1493.3333333333333,-1080C1492.984212024229,-970.554641557884,1487.1249370465928,-641.816629141506,1491.2386054787082,-423.327849347304C1495.3522739108237,-204.83906955310195,1522.6942076926985,22.502686809234206,1518.0153439260264,230.9326787652121C1513.3364801593543,439.36267072119,1470.3961034171539,610.3184627641352,1463.1654228786765,827.2521023885633C1455.9347423401991,1044.1857420129913,1469.6032756193854,1310.4098669098744,1474.6312606951615,1532.5345165117806C1479.6592457709376,1754.6591661136868,1490.2163212269713,2055.42241941863,1493.3333333333333,2160L 1920 2160 L 1920 -1080 Z" fill="url(&quot;#SvgjsLinearGradient1326&quot;)"></path><path d="M1706.6666666666665,-1080C1700.573963374977,-951.9519786351464,1665.5651702749064,-577.8307996817997,1670.1104469165293,-311.711871810878C1674.6557235581522,-45.592943939956285,1724.6692028057998,243.38486695904697,1733.9383265164033,516.7135672255301C1743.2074502270068,790.0422674920133,1730.2704658217735,1054.3792576589428,1725.7251891801507,1328.2603297880212C1721.1799125385278,1602.1414019170995,1709.8430870855805,2021.3767216313367,1706.6666666666665,2160L 1920 2160 L 1920 -1080 Z" fill="url(&quot;#SvgjsLinearGradient1327&quot;)"></path></g><defs><linearGradient x1="0.1" y1="0" x2="0" y2="1" id="SvgjsLinearGradient1319"><stop stop-color="#aecfea" offset="0"></stop><stop stop-color="#aed9ea" offset="0"></stop></linearGradient><linearGradient x1="0.1" y1="0" x2="0" y2="1" id="SvgjsLinearGradient1320"><stop stop-color="#b8d5ec" offset="0"></stop><stop stop-color="#b8deec" offset="0.1111111111111111"></stop></linearGradient><linearGradient x1="0.1" y1="0" x2="0" y2="1" id="SvgjsLinearGradient1321"><stop stop-color="#c1daef" offset="0"></stop><stop stop-color="#c1e2ef" offset="0.2222222222222222"></stop></linearGradient><linearGradient x1="0.1" y1="0" x2="0" y2="1" id="SvgjsLinearGradient1322"><stop stop-color="#cbe0f2" offset="0"></stop><stop stop-color="#cbe6f2" offset="0.3333333333333333"></stop></linearGradient><linearGradient x1="0.1" y1="0" x2="0" y2="1" id="SvgjsLinearGradient1323"><stop stop-color="#d5e6f4" offset="0"></stop><stop stop-color="#d5ebf4" offset="0.4444444444444444"></stop></linearGradient><linearGradient x1="0.1" y1="0" x2="0" y2="1" id="SvgjsLinearGradient1324"><stop stop-color="#deecf7" offset="0"></stop><stop stop-color="#def0f7" offset="0.5555555555555556"></stop></linearGradient><linearGradient x1="0.1" y1="0" x2="0" y2="1" id="SvgjsLinearGradient1325"><stop stop-color="#e8f1f9" offset="0"></stop><stop stop-color="#e8f4f9" offset="0.6666666666666666"></stop></linearGradient><linearGradient x1="0.1" y1="0" x2="0" y2="1" id="SvgjsLinearGradient1326"><stop stop-color="#f2f7fc" offset="0"></stop><stop stop-color="#f2f9fc" offset="0.7777777777777778"></stop></linearGradient><linearGradient x1="0.1" y1="0" x2="0" y2="1" id="SvgjsLinearGradient1327"><stop stop-color="#fbfdfe" offset="0"></stop><stop stop-color="#fbfdfe" offset="0.8888888888888888"></stop></linearGradient></defs></svg>