<svg xmlns="http://www.w3.org/2000/svg" width="35" height="35" viewBox="0 0 400 400">
  <g id="组_1" data-name="组 1" transform="translate(-316 -415)">
    <circle id="椭圆_7" data-name="椭圆 7" cx="200" cy="200" r="200" transform="translate(316 415)"
      fill="rgba(119,178,236,0.5)" />
    <circle id="椭圆_1" data-name="椭圆 1" cx="150" cy="150" r="150" transform="translate(380 510)"
      fill="rgba(119,236,189,0.5)" />
    <circle id="椭圆_2" data-name="椭圆 2" cx="150" cy="150" r="150" transform="translate(366 427)"
      fill="rgba(107,225,255,0.5)" />
    <circle id="椭圆_3" data-name="椭圆 3" cx="150" cy="150" r="150" transform="translate(330 444)" fill="#45c6e1"
      opacity="0.4" />
    <circle id="椭圆_6" data-name="椭圆 6" cx="150" cy="150" r="150" transform="translate(409 449)"
      fill="rgba(81,197,177,0.5)" />
    <circle id="椭圆_8" data-name="椭圆 8" cx="150" cy="150" r="150" transform="translate(321 489)"
      fill="rgba(194,157,216,0.24)" />
    <circle id="椭圆_9" data-name="椭圆 9" cx="137.5" cy="137.5" r="137.5" transform="translate(379 481)" fill="#fff" />
    <path id="多边形_1" data-name="多边形 1" d="M75,0l75,150H0Z" transform="translate(522 589)" fill="#fff" />
    <circle id="椭圆_10" data-name="椭圆 10" cx="25.5" cy="25.5" r="25.5" transform="translate(421 593)"
      fill="rgba(22,170,139,0.53)" />
    <circle id="椭圆_11" data-name="椭圆 11" cx="25.5" cy="25.5" r="25.5" transform="translate(491 593)"
      fill="rgba(22,170,139,0.53)" />
    <circle id="椭圆_12" data-name="椭圆 12" cx="25.5" cy="25.5" r="25.5" transform="translate(561 593)"
      fill="rgba(22,170,139,0.53)" />
  </g>
</svg>